<svg xmlns="http://www.w3.org/2000/svg" xmlns:xlink="http://www.w3.org/1999/xlink" width="748.22" height="561.602" viewBox="0 0 748.22 561.602">
  <defs>
    <linearGradient id="linear-gradient" y1="0.5" x2="1" y2="0.5" gradientUnits="objectBoundingBox">
      <stop offset="0" stop-color="#ffd300"/>
      <stop offset="1" stop-color="#ff421c"/>
    </linearGradient>
    <linearGradient id="linear-gradient-2" x1="0.661" y1="0.754" x2="0.356" y2="0.087" xlink:href="#linear-gradient"/>
    <linearGradient id="linear-gradient-3" x1="0" y1="0.6" x2="1" y2="0.6" xlink:href="#linear-gradient"/>
    <linearGradient id="linear-gradient-4" x1="0.119" y1="0.544" x2="0.844" y2="0.328" xlink:href="#linear-gradient"/>
  </defs>
  <g id="Grupo_2" data-name="Grupo 2" transform="translate(-6571 -532)">
    <path id="Caminho_4" data-name="Caminho 4" d="M243,665.2a30.44,30.44,0,0,0-12.94-12.7,42.36,42.36,0,0,0-19.83-4.39q-19.72,0-31.59,12.94T166.76,695.6q0,23,12.46,36t34.32,12.94q15,0,25.29-7.6t15.08-21.85H202.38V685.15h88.34v37.76a79.55,79.55,0,0,1-15.32,28.26A80.94,80.94,0,0,1,248,772.31q-16.64,8.07-37.53,8.07-24.69,0-44-10.81a77,77,0,0,1-30.16-30q-10.8-19.23-10.8-43.93t10.8-44.05a77.091,77.091,0,0,1,30-30.16q19.25-10.8,43.94-10.8,29.92,0,50.46,14.48t27.19,40.13Z" transform="translate(6445.49 312.47)" fill="#fff"/>
    <path id="Caminho_5" data-name="Caminho 5" d="M305.8,676.84q7.71-15.44,21-23.75a54.86,54.86,0,0,1,29.68-8.31q14,0,24.58,5.7a42.06,42.06,0,0,1,16.27,15v-18.8H438V779.19H397.4V760.43a43.88,43.88,0,0,1-16.51,15q-10.56,5.7-24.58,5.7a53.86,53.86,0,0,1-29.44-8.43q-13.31-8.43-21-24t-7.72-36Q298.08,692.29,305.8,676.84ZM388.92,689a28.56,28.56,0,0,0-41.09-.12q-8.43,8.67-8.43,23.87t8.43,24.1a28.27,28.27,0,0,0,41.09.12q8.41-8.77,8.43-24T388.92,689Z" transform="translate(6445.49 312.47)" fill="#fff"/>
    <path id="Caminho_6" data-name="Caminho 6" d="M500.88,603.46V779.19H460.27V603.46Z" transform="translate(6445.49 312.47)" fill="#fff"/>
    <path id="Caminho_7" data-name="Caminho 7" d="M597.06,744.76v34.43H576.4q-22.1,0-34.44-10.8t-12.35-35.27V680.4H513.47V646.68h16.14v-32.3h40.61v32.3h26.6V680.4h-26.6v53.2q0,5.94,2.85,8.55t9.5,2.61Z" transform="translate(6445.49 312.47)" fill="#fff"/>
    <path id="Caminho_8" data-name="Caminho 8" d="M736.69,722.67h-91.9q.94,12.36,8,18.88A24.28,24.28,0,0,0,670,748.08q15.19,0,21.13-12.82h43.22a59.64,59.64,0,0,1-33.72,39.89,69.761,69.761,0,0,1-29.21,5.94q-19.47,0-34.67-8.31A59,59,0,0,1,613,749q-8.55-15.43-8.55-36.09t8.43-36.1a58.31,58.31,0,0,1,23.63-23.75q15.19-8.31,34.9-8.31,19.25,0,34.2,8.08a57.929,57.929,0,0,1,23.39,23q8.43,15,8.43,34.91a104.619,104.619,0,0,1-.74,11.93Zm-40.85-22.56q0-10.44-7.12-16.62t-17.81-6.18a25.77,25.77,0,0,0-17.22,5.94q-7,5.94-8.67,16.86Z" transform="translate(6445.49 312.47)" fill="#fff"/>
    <path id="Caminho_9" data-name="Caminho 9" d="M752,676.84a58.51,58.51,0,0,1,23.51-23.75q15.08-8.31,34.55-8.31,24.93,0,41.67,13.06t22,36.81H830.49q-5.46-15.2-21.13-15.2a21.28,21.28,0,0,0-17.81,8.67q-6.66,8.67-6.65,24.82t6.65,24.81a21.28,21.28,0,0,0,17.81,8.67q15.66,0,21.13-15.2h43.22q-5.22,23.28-22.08,36.57t-41.56,13.3q-19.47,0-34.55-8.31A58.39,58.39,0,0,1,752,749q-8.44-15.43-8.44-36.09T752,676.84Z" transform="translate(6445.49 312.47)" fill="#fff"/>
    <path id="Caminho_10" data-name="Caminho 10" d="M655.42,355.41a16.81,16.81,0,0,1,15.85,22.37c-36.15,102.6-112.08,113.14-167.6,113.51,37.36-.72,89.56-43.45,104.55-75.35,0,0-27.76,1.58-43.29,1.58-36.54,0-56.91-9.13-64.76-39.22A18.38,18.38,0,0,1,518,355.41Z" transform="translate(6445.49 312.47)" fill="url(#linear-gradient)"/>
    <path id="Caminho_11" data-name="Caminho 11" d="M618.67,527.2c-.5.47-1,.91-1.47,1.35a174,174,0,0,1-113.14,43.67C405,573.49,324.15,492.66,325.41,393.6a173.453,173.453,0,0,1,3.58-33h0c27.94-43.76,66.33-56,127.35-59.14,14.2-.73,29.64-1,46.46-1a97.46,97.46,0,0,0-46.76,12.18c-29,16-49.07,46.25-49.72,81.41a95.54,95.54,0,0,0,94.1,97.27h2.82a1.87,1.87,0,0,0,.41,0c56.17-.38,133-12.15,168.56-118.19C674.15,386.12,683.18,468.47,618.67,527.2Z" transform="translate(6445.49 312.47)" fill="url(#linear-gradient-2)"/>
    <path id="Caminho_12" data-name="Caminho 12" d="M504.83,455.62c-.8.05-1.62.05-2.41.05h-2C501.89,455.65,503.33,455.65,504.83,455.62Z" transform="translate(6445.49 312.47)" fill="url(#linear-gradient-3)"/>
    <path id="Caminho_13" data-name="Caminho 13" d="M625.77,322.05H584.35a71.94,71.94,0,0,1-34.71-9.34l-.14-.08a97.48,97.48,0,0,0-46.67-12.18c-89,.17-139.35,6.19-173.81,60.16,14.18-68.85,69.09-122.77,138-137.21a180.387,180.387,0,0,1,34.52-3.81v-.06h2.55v.06a179.58,179.58,0,0,1,138.32,68C653.42,301.52,643.54,322.05,625.77,322.05Z" transform="translate(6445.49 312.47)" fill="url(#linear-gradient-4)"/>
  </g>
</svg>
