<svg id="Layer_1" data-name="Layer 1" xmlns="http://www.w3.org/2000/svg" xmlns:xlink="http://www.w3.org/1999/xlink" viewBox="0 0 1000 1000"><defs><style>.cls-1{fill:url(#linear-gradient);}.cls-2{fill:url(#linear-gradient-2);}.cls-3{fill:url(#linear-gradient-3);}.cls-4{fill:url(#linear-gradient-4);}</style><linearGradient id="linear-gradient" x1="500" y1="566.94" x2="868.8" y2="566.94" gradientUnits="userSpaceOnUse"><stop offset="0" stop-color="#ffd300"/><stop offset="1" stop-color="#ff421c"/></linearGradient><linearGradient id="linear-gradient-2" x1="619.96" y1="741.94" x2="392.55" y2="355.07" xlink:href="#linear-gradient"/><linearGradient id="linear-gradient-3" x1="501.81" y1="635.92" x2="511.22" y2="635.92" xlink:href="#linear-gradient"/><linearGradient id="linear-gradient-4" x1="216.65" y1="295.55" x2="709.26" y2="230.43" xlink:href="#linear-gradient"/></defs><path class="cls-1" d="M832.88,421.83a35.91,35.91,0,0,1,33.87,47.77c-77.24,219.15-239.4,241.68-358,242.45,79.8-1.53,191.3-92.81,223.32-160.93,0,0-59.29,3.38-92.48,3.38-78,0-121.55-19.51-138.32-83.78-6.46-24.75,12.59-48.89,38.16-48.89Z"/><path class="cls-2" d="M754.39,788.77c-1.07,1-2.14,1.94-3.14,2.88-64.76,57-149,92.09-241.67,93.29C298,887.63,125.29,715,128,503.4a371.26,371.26,0,0,1,7.64-70.4.06.06,0,0,1,.07-.06c59.68-93.47,141.68-119.61,272-126.32,30.34-1.57,63.32-2.07,99.24-2.2a208.4,208.4,0,0,0-99.87,26c-61.94,34.17-104.82,98.8-106.19,173.9-2.2,113.22,88.58,206.25,201,207.76h2.82c1.07,0,2.13,0,3.2-.06a4.3,4.3,0,0,0,.88,0c120-.82,284-25.95,360-252.45C872.88,487.42,892.18,663.33,754.39,788.77Z"/><path class="cls-3" d="M511.22,635.86c-1.69.13-3.45.13-5.14.13-1.44,0-2.82,0-4.27-.07C505,635.92,508,635.92,511.22,635.86Z"/><path class="cls-4" d="M769.55,350.56H681.08c-26,0-51.34-7.35-74.13-19.94l-.32-.18a208.71,208.71,0,0,0-99.68-26c-190.14.38-297.65,13.23-371.25,128.52C166,285.87,283.27,170.71,430.41,139.86a387.15,387.15,0,0,1,73.72-8.15v-.12c.88,0,1.76.06,2.7.06s1.82-.06,2.76-.06v.12A383.64,383.64,0,0,1,805,277C828.6,306.73,807.51,350.56,769.55,350.56Z"/></svg>