<svg id="Layer_1" data-name="Layer 1" xmlns="http://www.w3.org/2000/svg" xmlns:xlink="http://www.w3.org/1999/xlink" viewBox="0 0 1000 1000"><defs><style>.cls-1{fill:url(#linear-gradient);}.cls-2{fill:url(#linear-gradient-2);}.cls-3{fill:url(#linear-gradient-3);}.cls-4{fill:url(#linear-gradient-4);}</style><linearGradient id="linear-gradient" x1="183.51" y1="514.88" x2="303.93" y2="514.88" gradientUnits="userSpaceOnUse"><stop offset="0" stop-color="#ffd300"/><stop offset="1" stop-color="#ff421c"/></linearGradient><linearGradient id="linear-gradient-2" x1="222.68" y1="572.02" x2="148.42" y2="445.69" xlink:href="#linear-gradient"/><linearGradient id="linear-gradient-3" x1="184.1" y1="537.4" x2="187.17" y2="537.4" xlink:href="#linear-gradient"/><linearGradient id="linear-gradient-4" x1="90.99" y1="426.26" x2="251.84" y2="405" xlink:href="#linear-gradient"/></defs><path class="cls-1" d="M292.2,467.49a11.72,11.72,0,0,1,11.06,15.6C278,554.65,225.09,562,186.37,562.26c26-.5,62.46-30.31,72.92-52.55,0,0-19.36,1.1-30.2,1.1-25.48,0-39.69-6.37-45.17-27.35a12.83,12.83,0,0,1,12.47-16Z"/><path class="cls-2" d="M266.57,587.31c-.34.33-.69.63-1,.94a121.4,121.4,0,0,1-78.91,30.46A123.13,123.13,0,0,1,62,494.13a121.51,121.51,0,0,1,2.49-23,0,0,0,0,1,0,0c19.49-30.52,46.27-39.06,88.82-41.25,9.91-.51,20.68-.67,32.41-.71a68,68,0,0,0-32.61,8.49c-20.23,11.16-34.23,32.26-34.68,56.79a66.63,66.63,0,0,0,65.63,67.83H185c.35,0,.7,0,1.05,0a1.31,1.31,0,0,0,.28,0c39.18-.26,92.73-8.47,117.56-82.43C305.27,488.91,311.57,546.35,266.57,587.31Z"/><path class="cls-3" d="M187.17,537.38c-.55,0-1.12,0-1.68,0s-.92,0-1.39,0C185.13,537.4,186.13,537.4,187.17,537.38Z"/><path class="cls-4" d="M271.53,444.22H242.64a50.16,50.16,0,0,1-24.21-6.51l-.1-.06a68.18,68.18,0,0,0-32.55-8.49c-62.09.12-97.19,4.32-121.22,42,9.88-48,48.18-85.63,96.23-95.7a126.55,126.55,0,0,1,24.07-2.66v0l.88,0,.9,0v0a125.28,125.28,0,0,1,96.47,47.43A14.81,14.81,0,0,1,271.53,444.22Z"/><path d="M436.33,475.84a25.76,25.76,0,0,0-10.95-10.75,35.88,35.88,0,0,0-16.77-3.71q-16.68,0-26.71,10.94t-10,29.22q0,19.48,10.54,30.43t29,10.95q12.66,0,21.39-6.43T445.57,518H402v-25.3H476.7v31.93a67.31,67.31,0,0,1-13,23.9,68.24,68.24,0,0,1-23.19,17.88q-14.07,6.83-31.74,6.83-20.9,0-37.26-9.14a65,65,0,0,1-25.5-25.41q-9.15-16.26-9.14-37.16t9.14-37.25a65.11,65.11,0,0,1,25.4-25.51q16.28-9.13,37.16-9.14,25.31,0,42.68,12.25t23,33.95Z"/><path d="M489.45,485.68a48.67,48.67,0,0,1,17.78-20.09,46.42,46.42,0,0,1,25.1-7,43.18,43.18,0,0,1,20.79,4.82A35.56,35.56,0,0,1,566.88,476V460.17h34.34V572.24H566.88V556.38a37.08,37.08,0,0,1-14,12.65,43.18,43.18,0,0,1-20.79,4.82,45.55,45.55,0,0,1-24.9-7.13,49.15,49.15,0,0,1-17.78-20.28q-6.52-13.16-6.53-30.43T489.45,485.68Zm70.3,10.24a24.14,24.14,0,0,0-34.75-.1q-7.12,7.33-7.13,20.19T525,536.39a23.92,23.92,0,0,0,34.75.1q7.13-7.43,7.13-20.28T559.75,495.92Z"/><path d="M654.44,423.62V572.24H620.1V423.62Z"/><path d="M735.79,543.12v29.12H718.31q-18.67,0-29.12-9.14t-10.44-29.82V488.69H665.09V460.17h13.66V432.86h34.34v27.31h22.5v28.52h-22.5v45c0,3.35.81,5.76,2.41,7.23s4.29,2.21,8,2.21Z"/><path d="M853.88,524.44H776.15q.81,10.45,6.73,16a20.57,20.57,0,0,0,14.56,5.52q12.85,0,17.88-10.84h36.55A50.06,50.06,0,0,1,841.73,555a50.81,50.81,0,0,1-18.38,13.86,59,59,0,0,1-24.7,5q-16.47,0-29.32-7a50,50,0,0,1-20.09-20.08Q742,533.67,742,516.21t7.13-30.53a49.34,49.34,0,0,1,20-20.09q12.84-7,29.52-7,16.27,0,28.92,6.83a49.1,49.1,0,0,1,19.79,19.49q7.13,12.64,7.12,29.52A88,88,0,0,1,853.88,524.44Zm-34.54-19.08q0-8.83-6-14.06t-15.06-5.22a21.78,21.78,0,0,0-14.56,5q-5.93,5-7.33,14.26Z"/><path d="M866.84,485.68a49.56,49.56,0,0,1,19.88-20.09q12.75-7,29.22-7,21.09,0,35.25,11.05t18.58,31.13H933.22q-4.62-12.86-17.88-12.85a18,18,0,0,0-15.06,7.33q-5.62,7.33-5.63,21t5.63,21a18,18,0,0,0,15.06,7.33q13.26,0,17.88-12.86h36.55q-4.42,19.7-18.68,30.93t-35.15,11.25q-16.47,0-29.22-7a49.48,49.48,0,0,1-19.88-20.08q-7.14-13.07-7.13-30.53T866.84,485.68Z"/><path d="M410.18,546.89c-.67,0-1.36,0-2,0s-1.12,0-1.69,0C407.7,546.91,408.92,546.91,410.18,546.89Z"/></svg>